<svg width="40" height="40" viewBox="0 0 40 40" fill="none" xmlns="http://www.w3.org/2000/svg">
<path d="M20 27.9999C15.58 27.9999 12 24.4199 12 19.9999C12 15.5799 15.58 11.9999 20 11.9999C24.42 11.9999 28 15.5799 28 19.9999C28 24.4199 24.42 27.9999 20 27.9999ZM20 15.9999C17.8 15.9999 16 17.7999 16 19.9999C16 22.1999 17.8 23.9999 20 23.9999C22.2 23.9999 24 22.1999 24 19.9999C24 17.7999 22.2 15.9999 20 15.9999ZM23 39.9999H17.08C16.22 39.9999 15.46 39.4399 15.18 38.6399L13.9 34.8199L10.28 36.6199C9.52 36.9999 8.58 36.8599 7.98 36.2399L3.78 32.0599C3.16 31.4599 3.02 30.5199 3.4 29.7399L5.2 26.1599L1.36 24.8799C0.54 24.6199 0 23.8599 0 22.9999V17.0799C0 16.2199 0.56 15.4599 1.36 15.1799L5.18 13.8999L3.38 10.2799C2.98 9.51988 3.14 8.59988 3.74 7.97988L7.92 3.77988C8.54 3.15988 9.46 3.01988 10.24 3.39988L13.82 5.19988L15.1 1.35988C15.38 0.539878 16.14 -0.00012207 17 -0.00012207H22.92C23.78 -0.00012207 24.54 0.559878 24.82 1.35988L26.1 5.17988L29.72 3.37988C30.48 2.99988 31.42 3.13988 32.02 3.75988L36.22 7.93988C36.84 8.53988 36.98 9.47988 36.6 10.2599L34.8 13.8399L38.64 15.1199C39.46 15.3799 40 16.1399 40 16.9999V22.9199C40 23.7799 39.44 24.5399 38.64 24.8199L34.82 26.0999L36.62 29.7199C37 30.4799 36.86 31.4199 36.24 32.0199L32.06 36.2199C31.46 36.8399 30.52 36.9799 29.74 36.5999L26.16 34.7999L24.88 38.6399C24.62 39.4599 23.86 39.9999 23 39.9999ZM18.52 35.9999H21.56L22.4 33.5199C22.76 32.4199 23.6 31.5399 24.66 31.0999C25.74 30.6599 26.94 30.6999 27.98 31.2199L30.26 32.3599L32.4 30.1999L31.24 27.8599C30.72 26.8199 30.68 25.6199 31.12 24.5399C31.56 23.4599 32.44 22.6399 33.54 22.2799L36 21.4799V18.4399L33.52 17.5999C32.42 17.2399 31.54 16.3999 31.1 15.3399C30.66 14.2599 30.7 13.0599 31.22 12.0199L32.36 9.71988L30.2 7.59988L27.86 8.75988C26.82 9.27988 25.62 9.31988 24.54 8.87988C23.46 8.43988 22.64 7.53988 22.28 6.45988L21.48 3.99988H18.44L17.6 6.47988C17.24 7.57988 16.4 8.45988 15.34 8.89988C14.26 9.33988 13.06 9.29988 12.02 8.77988L9.74 7.63988L7.6 9.79988L8.76 12.1399C9.28 13.1799 9.32 14.3799 8.88 15.4599C8.44 16.5399 7.54 17.3599 6.46 17.7199L4 18.5199V21.5599L6.48 22.3799C7.58 22.7399 8.46 23.5799 8.9 24.6399C9.34 25.7199 9.3 26.9199 8.78 27.9599L7.64 30.2399L9.8 32.3999L12.14 31.2399C13.18 30.7199 14.38 30.6799 15.46 31.1199C16.54 31.5599 17.36 32.4399 17.72 33.5399L18.52 35.9999Z" fill="#FF5762"/>
</svg>
