<svg width="31" height="14" viewBox="0 0 31 14" fill="none" xmlns="http://www.w3.org/2000/svg">
<path d="M5.83273 2.3535C5.48116 2.77645 4.91866 3.11005 4.35616 3.06239C4.28584 2.49051 4.56124 1.88289 4.8835 1.5076C5.23507 1.07273 5.8503 0.762964 6.34835 0.739136C6.40695 1.33484 6.17843 1.91863 5.83273 2.3535ZM6.34249 3.17557C5.52804 3.12792 4.83077 3.64618 4.44405 3.64618C4.05147 3.64618 3.45967 3.1994 2.81513 3.21132C1.97724 3.22323 1.19794 3.70575 0.770201 4.47421C-0.108709 6.01113 0.541684 8.28673 1.3913 9.53771C1.80732 10.1572 2.30536 10.8364 2.96162 10.8125C3.58271 10.7887 3.82881 10.4015 4.57881 10.4015C5.33468 10.4015 5.55147 10.8125 6.20773 10.8006C6.88742 10.7887 7.31516 10.1811 7.73117 9.56154C8.20578 8.85861 8.39915 8.17355 8.41086 8.1378C8.39915 8.12589 7.09836 7.61954 7.08664 6.09453C7.07492 4.81972 8.11203 4.2121 8.15891 4.17636C7.57297 3.29471 6.6589 3.1994 6.34249 3.17557ZM11.0476 1.44803V10.7351H12.4656V7.55997H14.4285C16.2214 7.55997 17.4812 6.30899 17.4812 4.49804C17.4812 2.68709 16.2449 1.44803 14.4753 1.44803H11.0476ZM12.4656 2.66327H14.1003C15.3308 2.66327 16.0339 3.33046 16.0339 4.504C16.0339 5.67754 15.3308 6.35069 14.0945 6.35069H12.4656V2.66327ZM20.0711 10.8066C20.9617 10.8066 21.7879 10.3479 22.1629 9.62111H22.1922V10.7351H23.5047V6.1124C23.5047 4.77207 22.45 3.90829 20.8269 3.90829C19.3211 3.90829 18.2078 4.78398 18.1668 5.98731H19.4441C19.5496 5.41543 20.0711 5.04013 20.7859 5.04013C21.6531 5.04013 22.1394 5.45117 22.1394 6.20772V6.72002L20.3699 6.82725C18.7234 6.92852 17.8328 7.61358 17.8328 8.80499C17.8328 10.0083 18.7527 10.8066 20.0711 10.8066ZM20.4519 9.70451C19.6961 9.70451 19.2156 9.33517 19.2156 8.76925C19.2156 8.18546 19.6785 7.84591 20.5633 7.79229L22.1394 7.69102V8.21525C22.1394 9.08498 21.4129 9.70451 20.4519 9.70451ZM25.2566 13.2609C26.6395 13.2609 27.2899 12.7247 27.8582 11.0985L30.3485 3.99765H28.9071L27.2371 9.4841H27.2078L25.5379 3.99765H24.0555L26.4578 10.7589L26.3289 11.1699C26.1121 11.8669 25.7606 12.135 25.1336 12.135C25.0223 12.135 24.8055 12.1231 24.7176 12.1112V13.2251C24.7996 13.249 25.1512 13.2609 25.2566 13.2609Z" fill="white"/>
</svg>
