<svg width="20" height="20" viewBox="0 0 20 20" fill="none" xmlns="http://www.w3.org/2000/svg">
<path d="M19 9.99996H16V0.999956C16 0.649956 15.82 0.329956 15.53 0.149956C15.23 -0.0300441 14.87 -0.0500443 14.56 0.109956L11.08 1.84996L8.56 0.169956C8.22 -0.0500441 7.79 -0.0500441 7.45 0.169956L4.93 1.84996L1.45 0.109956C1.14 -0.0500443 0.77 -0.0300441 0.47 0.149956C0.18 0.329956 0 0.649956 0 0.999956V17C0 18.65 1.35 20 3 20H17C18.65 20 20 18.65 20 17V11C20 10.45 19.55 9.99996 19 9.99996ZM2 17V2.61996L4.55 3.89996C4.87 4.05996 5.25 4.03996 5.55 3.83996L8 2.19996L10.45 3.82996C10.75 4.02996 11.13 4.04996 11.45 3.88996L14 2.61996V17C14 17.35 14.07 17.69 14.18 18H3C2.45 18 2 17.55 2 17ZM18 17C18 17.55 17.55 18 17 18C16.45 18 16 17.55 16 17V12H18V17ZM9 7.99996H7C6.45 7.99996 6 7.54996 6 6.99996C6 6.44996 6.45 5.99996 7 5.99996H9C9.55 5.99996 10 6.44996 10 6.99996C10 7.54996 9.55 7.99996 9 7.99996ZM11 12H5C4.45 12 4 11.55 4 11C4 10.45 4.45 9.99996 5 9.99996H11C11.55 9.99996 12 10.45 12 11C12 11.55 11.55 12 11 12ZM11 16H5C4.45 16 4 15.55 4 15C4 14.45 4.45 14 5 14H11C11.55 14 12 14.45 12 15C12 15.55 11.55 16 11 16Z" fill="#FF5762"/>
</svg>
