<svg width="32" height="40" viewBox="0 0 32 40" fill="none" xmlns="http://www.w3.org/2000/svg">
<path fill-rule="evenodd" clip-rule="evenodd" d="M0 6C0 2.68629 2.68629 0 6 0H26C29.3137 0 32 2.68629 32 6V34C32 37.3137 29.3137 40 26 40H6C2.68629 40 0 37.3137 0 34V6ZM6 4C4.89543 4 4 4.89543 4 6V34C4 35.1046 4.89543 36 6 36H26C27.1046 36 28 35.1046 28 34V6C28 4.89543 27.1046 4 26 4H6Z" fill="#FF5762"/>
<path d="M8 24C8 22.8954 8.89543 22 10 22C11.1046 22 12 22.8954 12 24C12 25.1046 11.1046 26 10 26C8.89543 26 8 25.1046 8 24Z" fill="#FF5762"/>
<path d="M8 30C8 28.8954 8.89543 28 10 28C11.1046 28 12 28.8954 12 30C12 31.1046 11.1046 32 10 32C8.89543 32 8 31.1046 8 30Z" fill="#FF5762"/>
<path d="M14 24C14 22.8954 14.8954 22 16 22C17.1046 22 18 22.8954 18 24C18 25.1046 17.1046 26 16 26C14.8954 26 14 25.1046 14 24Z" fill="#FF5762"/>
<path d="M14 30C14 28.8954 14.8954 28 16 28C17.1046 28 18 28.8954 18 30C18 31.1046 17.1046 32 16 32C14.8954 32 14 31.1046 14 30Z" fill="#FF5762"/>
<path d="M20 24C20 22.8954 20.8954 22 22 22C23.1046 22 24 22.8954 24 24C24 25.1046 23.1046 26 22 26C20.8954 26 20 25.1046 20 24Z" fill="#FF5762"/>
<path d="M20 30C20 28.8954 20.8954 28 22 28C23.1046 28 24 28.8954 24 30C24 31.1046 23.1046 32 22 32C20.8954 32 20 31.1046 20 30Z" fill="#FF5762"/>
<path d="M8 10C8 8.89543 8.89543 8 10 8H22C23.1046 8 24 8.89543 24 10V12C24 13.1046 23.1046 14 22 14H10C8.89543 14 8 13.1046 8 12V10Z" fill="#FF5762"/>
</svg>
