<svg width="20" height="20" viewBox="0 0 20 20" fill="none" xmlns="http://www.w3.org/2000/svg">
<path d="M18 5H16.25C16.71 4.48 17 3.83 17 3C17 1.26 15.74 0 14 0C12.03 0 10.77 1.25 10 2.64C9.23 1.25 7.97 0 6 0C4.26 0 3 1.26 3 3C3 3.83 3.3 4.48 3.75 5H2C0.9 5 0 5.9 0 7V9C0 10.1 0.9 11 2 11V17C2 18.65 3.35 20 5 20H15C16.65 20 18 18.65 18 17V11C19.1 11 20 10.1 20 9V7C20 5.9 19.1 5 18 5ZM14 2C14.93 2 15 2.77 15 3C15 4.19 12.9 4.74999 11.21 4.92999C11.57 3.70999 12.43 2 14 2ZM6 2C7.57 2 8.43 3.70999 8.79 4.92999C7.1 4.74999 5 4.19 5 3C5 2.77 5.07 2 6 2ZM2 7H9V9H2V7ZM4 17V11H9V18H5C4.45 18 4 17.55 4 17ZM16 17C16 17.55 15.55 18 15 18H11V11H16V17ZM11 9V7H18V9H11Z" fill="#FF5762"/>
</svg>
