<svg width="32" height="14" viewBox="0 0 32 14" fill="none" xmlns="http://www.w3.org/2000/svg">
<path d="M15.0165 10.5269H13.8712V1.46237H16.9088C17.2714 1.45467 17.6319 1.52005 17.9695 1.65474C18.3071 1.78943 18.6152 1.99076 18.8759 2.24711C19.1392 2.48789 19.3487 2.78319 19.4904 3.11316C19.6322 3.44312 19.7028 3.80011 19.6975 4.16012C19.7051 4.52206 19.6355 4.88138 19.4937 5.21344C19.3519 5.54551 19.1411 5.84247 18.8759 6.08398C18.3447 6.59894 17.689 6.85618 16.9088 6.8557H15.0165V10.5269ZM15.0165 5.74261H16.9373C17.1479 5.74895 17.3574 5.71055 17.5526 5.62984C17.7477 5.54914 17.9241 5.42792 18.0705 5.27394C18.2162 5.12996 18.332 4.95776 18.4111 4.7675C18.4901 4.57725 18.5308 4.37281 18.5308 4.16627C18.5308 3.95973 18.4901 3.75529 18.4111 3.56503C18.332 3.37478 18.2162 3.20257 18.0705 3.0586C17.926 2.90137 17.7501 2.77718 17.5548 2.69426C17.3594 2.61134 17.1489 2.57159 16.9373 2.57764H15.0165V5.74261Z" fill="white"/>
<path d="M22.3368 4.1225C23.1834 4.1225 23.8516 4.35249 24.3415 4.81248C24.8314 5.27247 25.0762 5.90315 25.0757 6.70452V10.5269H23.9801V9.66626H23.9303C23.4561 10.375 22.8253 10.7294 22.038 10.7294C21.366 10.7294 20.8037 10.5269 20.3513 10.1219C20.1341 9.93602 19.9606 9.70321 19.8431 9.44045C19.7257 9.1777 19.6675 8.89162 19.6726 8.60307C19.6726 7.9613 19.9112 7.45092 20.3883 7.07194C20.8654 6.69295 21.5023 6.50297 22.2991 6.50201C22.9792 6.50201 23.5393 6.62858 23.9794 6.88172V6.61556C23.9807 6.41885 23.9389 6.22431 23.8571 6.04604C23.7753 5.86778 23.6555 5.71027 23.5063 5.58492C23.2035 5.3071 22.8087 5.15551 22.4008 5.16037C21.761 5.16037 21.2548 5.43472 20.882 5.98343L19.8732 5.33757C20.4281 4.52752 21.2493 4.1225 22.3368 4.1225ZM20.8549 8.62838C20.8542 8.77658 20.8883 8.92282 20.9543 9.05492C21.0204 9.18701 21.1166 9.30114 21.2348 9.3878C21.4882 9.59038 21.8026 9.6977 22.1248 9.69157C22.6081 9.69075 23.0714 9.49517 23.4131 9.14768C23.7926 8.78461 23.9823 8.35861 23.9823 7.86969C23.6251 7.58038 23.1272 7.43573 22.4883 7.43573C22.0231 7.43573 21.6351 7.54977 21.3245 7.77783C21.0107 8.00928 20.8549 8.29062 20.8549 8.62838Z" fill="white"/>
<path d="M31.3646 4.32502L27.5401 13.2609H26.3577L27.777 10.1342L25.2622 4.32502H26.5071L28.3248 8.78028H28.3497L30.1175 4.32502H31.3646Z" fill="white"/>
<path d="M10.3882 6.06515C10.3887 5.71028 10.3592 5.35604 10.3 5.0063H5.46963V7.01189H8.23626C8.17965 7.33221 8.05982 7.63756 7.88401 7.90954C7.70819 8.18151 7.48003 8.41447 7.21327 8.59438V9.89624H8.86442C9.83122 8.99 10.3882 7.6498 10.3882 6.06515Z" fill="white"/>
<path d="M5.46971 11.154C6.85195 11.154 8.0158 10.6926 8.8645 9.89697L7.21335 8.59511C6.75378 8.9119 6.1619 9.09271 5.46971 9.09271C4.1337 9.09271 2.99973 8.17707 2.59423 6.94319H0.893271V8.28483C1.31959 9.1473 1.9733 9.87233 2.78143 10.379C3.58955 10.8856 4.52028 11.1539 5.46971 11.154Z" fill="white"/>
<path d="M2.59423 6.94319C2.37986 6.29663 2.37985 5.59645 2.59422 4.94989V3.60825H0.893265C0.534631 4.33378 0.347855 5.13453 0.347855 5.94654C0.347855 6.75854 0.534637 7.55929 0.893271 8.28483L2.59423 6.94319Z" fill="white"/>
<path d="M5.46971 2.80039C6.20016 2.78826 6.90598 3.06885 7.43459 3.58151L8.89652 2.09522C7.9695 1.21001 6.74142 0.72401 5.46971 0.739111C4.52028 0.739155 3.58955 1.00748 2.78143 1.51413C1.9733 2.02077 1.31958 2.74578 0.893265 3.60825L2.59422 4.94989C2.99972 3.71601 4.1337 2.80039 5.46971 2.80039Z" fill="white"/>
</svg>
