<svg width="18" height="19" viewBox="0 0 18 19" fill="none" xmlns="http://www.w3.org/2000/svg">
<path fill-rule="evenodd" clip-rule="evenodd" d="M2.25 0.259277H15.75C16.9926 0.259277 18 1.26664 18 2.50928V16.0093C18 17.2519 16.9926 18.2593 15.75 18.2593H2.25C1.00736 18.2593 0 17.2519 0 16.0093V2.50928C0 1.26664 1.00736 0.259277 2.25 0.259277ZM3.67421 2.16699C2.64266 2.16699 1.96869 2.84516 1.96869 3.73403C1.96869 4.60422 2.62218 5.30108 3.63428 5.30108H3.65378C4.70505 5.30108 5.35941 4.60422 5.35941 3.73403C5.33991 2.84516 4.70511 2.16699 3.67421 2.16699ZM5.16134 6.53999H2.14634V15.609H5.16134V6.53999ZM9.84379 7.82402C10.2449 7.20625 10.9613 6.32673 12.5605 6.32673C14.5439 6.32673 16.0312 7.62261 16.0312 10.4083V15.609H13.0168V10.7567C13.0168 9.53806 12.58 8.70611 11.4898 8.70611C10.657 8.70611 10.1607 9.26695 9.94316 9.80834C9.86324 10.0021 9.84374 10.2731 9.84374 10.5442V15.609H6.82955C6.82955 15.609 6.86954 7.39067 6.82955 6.53999H9.84379V7.82402Z" fill="#AFB3C0"/>
</svg>
