<svg width="18" height="19" viewBox="0 0 18 19" fill="none" xmlns="http://www.w3.org/2000/svg">
<path d="M5 0.259277C2.239 0.259277 0 2.49828 0 5.25928V13.2593C0 16.0203 2.239 18.2593 5 18.2593H13C15.761 18.2593 18 16.0203 18 13.2593V5.25928C18 2.49828 15.761 0.259277 13 0.259277H5ZM15 2.25928C15.552 2.25928 16 2.70728 16 3.25928C16 3.81128 15.552 4.25928 15 4.25928C14.448 4.25928 14 3.81128 14 3.25928C14 2.70728 14.448 2.25928 15 2.25928ZM9 4.25928C11.761 4.25928 14 6.49828 14 9.25928C14 12.0203 11.761 14.2593 9 14.2593C6.239 14.2593 4 12.0203 4 9.25928C4 6.49828 6.239 4.25928 9 4.25928ZM9 6.25928C8.20435 6.25928 7.44129 6.57535 6.87868 7.13796C6.31607 7.70057 6 8.46363 6 9.25928C6 10.0549 6.31607 10.818 6.87868 11.3806C7.44129 11.9432 8.20435 12.2593 9 12.2593C9.79565 12.2593 10.5587 11.9432 11.1213 11.3806C11.6839 10.818 12 10.0549 12 9.25928C12 8.46363 11.6839 7.70057 11.1213 7.13796C10.5587 6.57535 9.79565 6.25928 9 6.25928Z" fill="#A1A6B5"/>
</svg>
