<svg width="16" height="20" viewBox="0 0 16 20" fill="none" xmlns="http://www.w3.org/2000/svg">
<path d="M15.41 6L10 0.59C9.62 0.21 9.12 0 8.59 0H3C1.35 0 0 1.35 0 3V17C0 18.65 1.35 20 3 20H13C14.65 20 16 18.65 16 17V7.41C16 6.88 15.79 6.38 15.41 6ZM12.59 6H11C10.45 6 10 5.55 10 5V3.41L12.59 6ZM14 17C14 17.55 13.55 18 13 18H3C2.45 18 2 17.55 2 17V3C2 2.45 2.45 2 3 2H8V5C8 6.65 9.35 8 11 8H14V17ZM6 8H5C4.45 8 4 7.55 4 7C4 6.45 4.45 6 5 6H6C6.55 6 7 6.45 7 7C7 7.55 6.55 8 6 8ZM11 12H5C4.45 12 4 11.55 4 11C4 10.45 4.45 10 5 10H11C11.55 10 12 10.45 12 11C12 11.55 11.55 12 11 12ZM9 16H5C4.45 16 4 15.55 4 15C4 14.45 4.45 14 5 14H9C9.55 14 10 14.45 10 15C10 15.55 9.55 16 9 16Z" fill="#FF5762"/>
</svg>
