<svg width="19" height="21" viewBox="0 0 19 21" fill="none" xmlns="http://www.w3.org/2000/svg">
<path fill-rule="evenodd" clip-rule="evenodd" d="M10.5556 2.1H2.11111L2.11111 15.75H10.5556V2.1ZM2.11111 0C0.945177 0 0 0.940202 0 2.1V15.75C0 16.9098 0.945177 17.85 2.11111 17.85H10.5556C11.7215 17.85 12.6667 16.9098 12.6667 15.75V2.1C12.6667 0.940202 11.7215 0 10.5556 0H2.11111Z" fill="#FF5762"/>
<path fill-rule="evenodd" clip-rule="evenodd" d="M7.76559 20.8891C7.51258 20.8036 7.28112 20.6718 7.08147 20.5037C6.99163 20.4281 6.90824 20.3452 6.83222 20.2558C6.66326 20.0572 6.53072 19.827 6.44486 19.5753C6.41548 19.4892 6.39156 19.4006 6.37352 19.3098C6.34715 19.1773 6.33333 19.0402 6.33333 18.9V15.9469C7.49927 15.9469 8.44444 16.8871 8.44444 18.0469V18.9H9.5C10.6659 18.9 11.6111 19.8402 11.6111 21H8.44444C8.30345 21 8.16569 20.9863 8.03244 20.96C7.94124 20.9421 7.85215 20.9183 7.76559 20.8891ZM19 9.12187C17.8341 9.12187 16.8889 10.0621 16.8889 11.2219V12.9281C16.8889 14.0879 17.8341 15.0281 19 15.0281V9.12187ZM6.33333 8.20312C7.49927 8.20312 8.44444 7.26292 8.44444 6.10312V5.25H9.5C10.6659 5.25 11.6111 4.3098 11.6111 3.15H8.44444C8.30345 3.15 8.16569 3.16375 8.03244 3.18997C7.94124 3.20792 7.85215 3.23171 7.76558 3.26093C7.51258 3.34635 7.28112 3.47819 7.08147 3.64626C6.99164 3.72188 6.90824 3.80484 6.83222 3.8942C6.66326 4.0928 6.53072 4.32304 6.44485 4.57471C6.41547 4.66082 6.39156 4.74944 6.37352 4.84016C6.34716 4.97271 6.33333 5.10975 6.33333 5.25V8.20312ZM6.33333 9.12187C7.49927 9.12187 8.44444 10.0621 8.44444 11.2219V12.9281C8.44444 14.0879 7.49927 15.0281 6.33333 15.0281V9.12187ZM13.7222 3.15C13.7222 4.3098 14.6674 5.25 15.8333 5.25H16.8889V6.10312C16.8889 7.26292 17.8341 8.20312 19 8.20312V5.25C19 5.10975 18.9862 4.97271 18.9598 4.84016C18.9418 4.74944 18.9179 4.66082 18.8885 4.57471C18.8026 4.32304 18.6701 4.0928 18.5011 3.8942C18.4251 3.80484 18.3417 3.72188 18.2519 3.64626C18.0522 3.47819 17.8208 3.34635 17.5678 3.26094C17.4812 3.23171 17.3921 3.20792 17.3009 3.18997C17.1676 3.16375 17.0299 3.15 16.8889 3.15H13.7222ZM19 15.9469C17.8341 15.9469 16.8889 16.8871 16.8889 18.0469V18.9H15.8333C14.6674 18.9 13.7222 19.8402 13.7222 21H16.8889C17.0299 21 17.1676 20.9863 17.3009 20.96C17.3921 20.9421 17.4812 20.9183 17.5677 20.8891C17.8208 20.8036 18.0522 20.6718 18.2519 20.5037C18.3417 20.4281 18.4251 20.3452 18.5011 20.2558C18.6701 20.0572 18.8026 19.827 18.8885 19.5753C18.9179 19.4892 18.9418 19.4006 18.9598 19.3098C18.9862 19.1773 19 19.0402 19 18.9V15.9469Z" fill="#FF5762"/>
</svg>
