<svg width="44" height="38" viewBox="0 0 44 38" fill="none" xmlns="http://www.w3.org/2000/svg">
<path d="M16 4C15.4696 4 14.9609 4.21071 14.5858 4.58579C14.2107 4.96086 14 5.46957 14 6C14 6.53043 13.7893 7.03914 13.4142 7.41421C13.0391 7.78929 12.5304 8 12 8H6C5.46957 8 4.96086 8.21071 4.58579 8.58579C4.21071 8.96086 4 9.46957 4 10V32C4 32.5304 4.21071 33.0391 4.58579 33.4142C4.96086 33.7893 5.46957 34 6 34H38C38.5304 34 39.0391 33.7893 39.4142 33.4142C39.7893 33.0391 40 32.5304 40 32V10C40 9.46957 39.7893 8.96086 39.4142 8.58579C39.0391 8.21071 38.5304 8 38 8H32C31.4696 8 30.9609 7.78929 30.5858 7.41421C30.2107 7.03914 30 6.53043 30 6C30 5.46957 29.7893 4.96086 29.4142 4.58579C29.0391 4.21071 28.5304 4 28 4H16ZM10.342 4C10.7557 2.83001 11.5219 1.81706 12.5352 1.10069C13.5485 0.384317 14.759 -0.000236855 16 1.09448e-07H28C29.241 -0.000236855 30.4515 0.384317 31.4648 1.10069C32.4781 1.81706 33.2443 2.83001 33.658 4H38C39.5913 4 41.1174 4.63214 42.2426 5.75736C43.3679 6.88258 44 8.4087 44 10V32C44 33.5913 43.3679 35.1174 42.2426 36.2426C41.1174 37.3679 39.5913 38 38 38H6C4.4087 38 2.88258 37.3679 1.75736 36.2426C0.632141 35.1174 0 33.5913 0 32V10C0 8.4087 0.632141 6.88258 1.75736 5.75736C2.88258 4.63214 4.4087 4 6 4H10.342ZM22 14C20.8133 14 19.6533 14.3519 18.6666 15.0112C17.6799 15.6705 16.9108 16.6075 16.4567 17.7039C16.0026 18.8003 15.8838 20.0067 16.1153 21.1705C16.3468 22.3344 16.9182 23.4035 17.7574 24.2426C18.5965 25.0818 19.6656 25.6532 20.8295 25.8847C21.9933 26.1162 23.1997 25.9974 24.2961 25.5433C25.3925 25.0892 26.3295 24.3201 26.9888 23.3334C27.6481 22.3467 28 21.1867 28 20C28 18.4087 27.3679 16.8826 26.2426 15.7574C25.1174 14.6321 23.5913 14 22 14ZM12 20C12 18.0222 12.5865 16.0888 13.6853 14.4443C14.7841 12.7998 16.3459 11.5181 18.1732 10.7612C20.0004 10.0043 22.0111 9.8063 23.9509 10.1921C25.8907 10.578 27.6725 11.5304 29.0711 12.9289C30.4696 14.3275 31.422 16.1093 31.8079 18.0491C32.1937 19.9889 31.9957 21.9996 31.2388 23.8268C30.4819 25.6541 29.2002 27.2159 27.5557 28.3147C25.9112 29.4135 23.9778 30 22 30C19.3478 30 16.8043 28.9464 14.9289 27.0711C13.0536 25.1957 12 22.6522 12 20ZM38 12C38 12.3956 37.8827 12.7822 37.6629 13.1111C37.4432 13.44 37.1308 13.6964 36.7654 13.8478C36.3999 13.9991 35.9978 14.0387 35.6098 13.9616C35.2219 13.8844 34.8655 13.6939 34.5858 13.4142C34.3061 13.1345 34.1156 12.7781 34.0384 12.3902C33.9613 12.0022 34.0009 11.6001 34.1522 11.2346C34.3036 10.8692 34.56 10.5568 34.8889 10.3371C35.2178 10.1173 35.6044 10 36 10C36.5304 10 37.0391 10.2107 37.4142 10.5858C37.7893 10.9609 38 11.4696 38 12Z" fill="#FF5762"/>
</svg>
