<svg width="21" height="21" viewBox="0 0 21 21" fill="none" xmlns="http://www.w3.org/2000/svg">
<path d="M19.9999 0H15.9999C13.2399 0 11.0199 1.24 9.04991 4.01C9.03991 4.01 9.01991 4 8.99991 4H5.34991C4.11991 4 3.02991 4.74 2.56991 5.89L1.06991 9.63C0.949908 9.94 0.979908 10.29 1.16991 10.56C1.35991 10.83 1.66991 11 1.99991 11H5.63991C5.43991 11.54 5.24991 12.1 5.04991 12.68C4.92991 13.04 5.01991 13.44 5.28991 13.7L7.28991 15.7C7.47991 15.9 7.73991 16 7.99991 16C8.18991 16 8.27991 15.99 9.99991 15.36V19C9.99991 19.33 10.1599 19.64 10.4399 19.83C10.7199 20.02 11.0699 20.05 11.3699 19.93L15.1099 18.43C16.2599 17.97 16.9999 16.88 16.9999 15.64V12C16.9999 11.98 16.9899 11.96 16.9899 11.95C19.7599 9.98 20.9999 7.76 20.9999 5V1C20.9999 0.45 20.5499 0 19.9999 0ZM3.47991 9L4.42991 6.63C4.57991 6.25 4.93991 6 5.34991 6H7.82991C7.34991 6.89 6.87991 7.89 6.41991 9H3.47991ZM14.9999 15.65C14.9999 16.06 14.7499 16.43 14.3699 16.58L11.9999 17.52V14.58C13.1099 14.12 14.1099 13.65 14.9999 13.17V15.65ZM18.9999 5C18.9999 7.69 17.6799 10.62 8.26991 13.85L7.14991 12.73C10.3799 3.32 13.3099 2 15.9999 2H18.9999V5ZM15.9999 4C16.5499 4 16.9999 4.45 16.9999 5C16.9999 5.55 16.5499 6 15.9999 6C15.4499 6 14.9999 5.55 14.9999 5C14.9999 4.45 15.4499 4 15.9999 4Z" fill="#FF5762"/>
</svg>
