<svg width="55" height="16" viewBox="0 0 55 16" fill="none" xmlns="http://www.w3.org/2000/svg">
<path d="M54.3536 8.35356C54.5488 8.1583 54.5488 7.84171 54.3536 7.64645L51.1716 4.46447C50.9763 4.26921 50.6597 4.26921 50.4645 4.46447C50.2692 4.65973 50.2692 4.97632 50.4645 5.17158L53.2929 8L50.4645 10.8284C50.2692 11.0237 50.2692 11.3403 50.4645 11.5355C50.6597 11.7308 50.9763 11.7308 51.1716 11.5355L54.3536 8.35356ZM1.92857 8.5C2.20471 8.5 2.42857 8.27614 2.42857 8C2.42857 7.72386 2.20471 7.5 1.92857 7.5L1.92857 8.5ZM5.78571 7.5C5.50957 7.5 5.28571 7.72386 5.28571 8C5.28571 8.27614 5.50957 8.5 5.78571 8.5L5.78571 7.5ZM9.64286 8.5C9.919 8.5 10.1429 8.27614 10.1429 8C10.1429 7.72386 9.919 7.5 9.64286 7.5L9.64286 8.5ZM13.5 7.5C13.2239 7.5 13 7.72386 13 8C13 8.27614 13.2239 8.5 13.5 8.5L13.5 7.5ZM17.3571 8.5C17.6333 8.5 17.8571 8.27614 17.8571 8C17.8571 7.72386 17.6333 7.5 17.3571 7.5L17.3571 8.5ZM21.2143 7.5C20.9381 7.5 20.7143 7.72386 20.7143 8C20.7143 8.27614 20.9381 8.5 21.2143 8.5L21.2143 7.5ZM25.0714 8.5C25.3476 8.5 25.5714 8.27614 25.5714 8C25.5714 7.72386 25.3476 7.5 25.0714 7.5L25.0714 8.5ZM28.9286 7.5C28.6524 7.5 28.4286 7.72386 28.4286 8C28.4286 8.27614 28.6524 8.5 28.9286 8.5L28.9286 7.5ZM32.7857 8.5C33.0619 8.5 33.2857 8.27615 33.2857 8C33.2857 7.72386 33.0619 7.5 32.7857 7.5L32.7857 8.5ZM36.6429 7.5C36.3667 7.5 36.1429 7.72386 36.1429 8C36.1429 8.27615 36.3667 8.5 36.6429 8.5L36.6429 7.5ZM40.5 8.5C40.7761 8.5 41 8.27615 41 8C41 7.72386 40.7761 7.5 40.5 7.5L40.5 8.5ZM44.3571 7.5C44.081 7.5 43.8571 7.72386 43.8571 8C43.8571 8.27615 44.081 8.5 44.3571 8.5L44.3571 7.5ZM48.2143 8.5C48.4904 8.5 48.7143 8.27615 48.7143 8C48.7143 7.72386 48.4904 7.5 48.2143 7.5L48.2143 8.5ZM52.0714 7.5C51.7953 7.5 51.5714 7.72386 51.5714 8C51.5714 8.27615 51.7953 8.5 52.0714 8.5L52.0714 7.5ZM-4.37114e-08 8.5L1.92857 8.5L1.92857 7.5L4.37114e-08 7.5L-4.37114e-08 8.5ZM5.78571 8.5L9.64286 8.5L9.64286 7.5L5.78571 7.5L5.78571 8.5ZM13.5 8.5L17.3571 8.5L17.3571 7.5L13.5 7.5L13.5 8.5ZM21.2143 8.5L25.0714 8.5L25.0714 7.5L21.2143 7.5L21.2143 8.5ZM28.9286 8.5L32.7857 8.5L32.7857 7.5L28.9286 7.5L28.9286 8.5ZM36.6429 8.5L40.5 8.5L40.5 7.5L36.6429 7.5L36.6429 8.5ZM44.3571 8.5L48.2143 8.5L48.2143 7.5L44.3571 7.5L44.3571 8.5ZM52.0714 8.5L54 8.5L54 7.5L52.0714 7.5L52.0714 8.5ZM54.7071 8.70711C55.0976 8.31659 55.0976 7.68342 54.7071 7.2929L48.3432 0.928936C47.9526 0.538412 47.3195 0.538412 46.9289 0.928936C46.5384 1.31946 46.5384 1.95263 46.9289 2.34315L52.5858 8L46.9289 13.6569C46.5384 14.0474 46.5384 14.6805 46.9289 15.0711C47.3195 15.4616 47.9526 15.4616 48.3432 15.0711L54.7071 8.70711ZM1.92857 9C2.48086 9 2.92857 8.55229 2.92857 8C2.92857 7.44772 2.48086 7 1.92857 7L1.92857 9ZM5.78571 7C5.23343 7 4.78571 7.44772 4.78571 8C4.78571 8.55229 5.23343 9 5.78571 9L5.78571 7ZM9.64286 9C10.1951 9 10.6429 8.55229 10.6429 8C10.6429 7.44772 10.1951 7 9.64286 7L9.64286 9ZM13.5 7C12.9477 7 12.5 7.44772 12.5 8C12.5 8.55229 12.9477 9 13.5 9L13.5 7ZM17.3571 9C17.9094 9 18.3571 8.55229 18.3571 8C18.3571 7.44772 17.9094 7 17.3571 7L17.3571 9ZM21.2143 7C20.662 7 20.2143 7.44772 20.2143 8C20.2143 8.55229 20.662 9 21.2143 9L21.2143 7ZM25.0714 9C25.6237 9 26.0714 8.55229 26.0714 8C26.0714 7.44772 25.6237 7 25.0714 7L25.0714 9ZM28.9286 7C28.3763 7 27.9286 7.44772 27.9286 8C27.9286 8.55229 28.3763 9 28.9286 9L28.9286 7ZM32.7857 9C33.338 9 33.7857 8.55229 33.7857 8C33.7857 7.44772 33.338 7 32.7857 7L32.7857 9ZM36.6429 7C36.0906 7 35.6429 7.44772 35.6429 8C35.6429 8.55229 36.0906 9 36.6429 9L36.6429 7ZM40.5 9C41.0523 9 41.5 8.55229 41.5 8C41.5 7.44772 41.0523 7 40.5 7L40.5 9ZM44.3571 7C43.8049 7 43.3571 7.44772 43.3571 8C43.3571 8.55229 43.8049 9 44.3571 9L44.3571 7ZM48.2143 9C48.7666 9 49.2143 8.55229 49.2143 8C49.2143 7.44772 48.7666 7 48.2143 7L48.2143 9ZM52.0714 7C51.5191 7 51.0714 7.44772 51.0714 8C51.0714 8.55229 51.5191 9 52.0714 9L52.0714 7ZM-8.74228e-08 9L1.92857 9L1.92857 7L8.74228e-08 7L-8.74228e-08 9ZM5.78571 9L9.64286 9L9.64286 7L5.78571 7L5.78571 9ZM13.5 9L17.3571 9L17.3571 7L13.5 7L13.5 9ZM21.2143 9L25.0714 9L25.0714 7L21.2143 7L21.2143 9ZM28.9286 9L32.7857 9L32.7857 7L28.9286 7L28.9286 9ZM36.6429 9L40.5 9L40.5 7L36.6429 7L36.6429 9ZM44.3571 9L48.2143 9L48.2143 7L44.3571 7L44.3571 9ZM52.0714 9L54 9L54 7L52.0714 7L52.0714 9Z" fill="#6C789D"/>
</svg>
